<?xml version="1.0" encoding="UTF-8"?>
<svg xmlns="http://www.w3.org/2000/svg" xmlns:xlink="http://www.w3.org/1999/xlink" width="595.28pt" height="595.28pt" viewBox="0 0 595.28 595.28" version="1.1">
<g id="surface1">
<path style=" stroke:none;fill-rule:nonzero;fill:rgb(100%,100%,100%);fill-opacity:1;" d="M 0 595.28125 L 595.28125 595.28125 L 595.28125 0 L 0 0 Z M 0 595.28125 "/>
<path style=" stroke:none;fill-rule:nonzero;fill:rgb(50.999451%,50.59967%,50.59967%);fill-opacity:1;" d="M 51.285156 277.21875 C 51.285156 272.011719 51.285156 271.066406 51.230469 270.007813 C 51.171875 268.863281 50.886719 268.320313 49.800781 268.089844 C 49.515625 268.03125 48.972656 268.003906 48.65625 268.003906 C 48.542969 268.003906 48.402344 267.917969 48.402344 267.804688 C 48.402344 267.601563 48.574219 267.515625 48.945313 267.515625 C 50.429688 267.515625 52.457031 267.632813 52.773438 267.632813 C 53.058594 267.632813 55.058594 267.515625 56.058594 267.515625 C 56.429688 267.515625 56.601563 267.601563 56.601563 267.804688 C 56.601563 267.917969 56.457031 268.003906 56.316406 268.003906 C 56.085938 268.003906 55.886719 268.03125 55.488281 268.089844 C 54.601563 268.234375 54.316406 268.835938 54.257813 270.007813 C 54.203125 271.066406 54.203125 272.011719 54.203125 277.21875 L 54.203125 281.882813 C 54.203125 286.691406 55.257813 288.75 56.6875 290.125 C 58.316406 291.640625 59.828125 291.953125 61.714844 291.953125 C 63.742188 291.953125 65.742188 290.984375 66.945313 289.550781 C 68.488281 287.664063 68.886719 284.800781 68.886719 281.367188 L 68.886719 277.21875 C 68.886719 272.011719 68.886719 271.066406 68.828125 270.007813 C 68.742188 268.863281 68.488281 268.320313 67.402344 268.089844 C 67.113281 268.03125 66.542969 268.003906 66.257813 268.003906 C 66.113281 268.003906 66 267.917969 66 267.804688 C 66 267.601563 66.144531 267.515625 66.515625 267.515625 C 68.03125 267.515625 69.859375 267.632813 70.058594 267.632813 C 70.285156 267.632813 71.859375 267.515625 72.859375 267.515625 C 73.230469 267.515625 73.402344 267.601563 73.402344 267.804688 C 73.402344 267.917969 73.257813 268.003906 73.113281 268.003906 C 72.886719 268.003906 72.6875 268.03125 72.285156 268.089844 C 71.371094 268.289063 71.113281 268.835938 71.058594 270.007813 C 71 271.066406 71 272.011719 71 277.21875 L 71 280.765625 C 71 284.371094 70.601563 288.378906 67.914063 290.753906 C 65.515625 292.902344 63.03125 293.214844 61.058594 293.214844 C 59.914063 293.214844 56.574219 293.101563 54.203125 290.839844 C 52.574219 289.292969 51.285156 286.949219 51.285156 282.085938 "/>
<path style=" stroke:none;fill-rule:nonzero;fill:rgb(50.999451%,50.59967%,50.59967%);fill-opacity:1;" d="M 81.773438 288.207031 C 81.859375 290.953125 82.171875 291.8125 83.085938 292.101563 C 83.714844 292.242188 84.457031 292.300781 84.746094 292.300781 C 84.914063 292.300781 85 292.355469 85 292.5 C 85 292.699219 84.800781 292.757813 84.402344 292.757813 C 82.515625 292.757813 81.171875 292.644531 80.886719 292.644531 C 80.574219 292.644531 79.171875 292.757813 77.6875 292.757813 C 77.34375 292.757813 77.144531 292.726563 77.144531 292.5 C 77.144531 292.355469 77.257813 292.300781 77.429688 292.300781 C 77.6875 292.300781 78.289063 292.242188 78.773438 292.101563 C 79.628906 291.871094 79.773438 290.894531 79.773438 287.863281 L 79.828125 268.71875 C 79.828125 267.433594 79.914063 267.058594 80.171875 267.058594 C 80.457031 267.058594 81 267.804688 81.34375 268.117188 C 81.859375 268.691406 86.800781 274.070313 91.945313 279.5625 C 95.230469 283.113281 98.886719 287.175781 99.945313 288.292969 L 99.574219 271.324219 C 99.542969 269.148438 99.316406 268.433594 98.289063 268.144531 C 97.6875 268.03125 96.914063 268.003906 96.628906 268.003906 C 96.402344 268.003906 96.371094 267.890625 96.371094 267.746094 C 96.371094 267.574219 96.628906 267.515625 97.03125 267.515625 C 98.542969 267.515625 100.144531 267.632813 100.515625 267.632813 C 100.886719 267.632813 101.972656 267.515625 103.34375 267.515625 C 103.714844 267.515625 103.941406 267.574219 103.941406 267.746094 C 103.941406 267.890625 103.800781 268.003906 103.574219 268.003906 C 103.402344 268.003906 103.171875 268.003906 102.773438 268.089844 C 101.6875 268.316406 101.542969 269.0625 101.542969 271.066406 L 101.484375 290.609375 C 101.484375 292.8125 101.402344 292.984375 101.171875 292.984375 C 100.914063 292.984375 100.515625 292.613281 98.746094 290.839844 C 98.371094 290.523438 93.574219 285.601563 90.058594 281.796875 C 86.171875 277.648438 82.402344 273.441406 81.34375 272.238281 "/>
<path style=" stroke:none;fill-rule:nonzero;fill:rgb(50.999451%,50.59967%,50.59967%);fill-opacity:1;" d="M 115.230469 283.085938 C 115.230469 286.289063 115.230469 288.921875 115.402344 290.324219 C 115.515625 291.296875 115.6875 292.011719 116.6875 292.15625 C 117.171875 292.214844 117.886719 292.300781 118.199219 292.300781 C 118.402344 292.300781 118.460938 292.386719 118.460938 292.5 C 118.460938 292.644531 118.285156 292.757813 117.945313 292.757813 C 116.085938 292.757813 114 292.644531 113.828125 292.644531 C 113.65625 292.644531 111.574219 292.757813 110.574219 292.757813 C 110.199219 292.757813 110.03125 292.699219 110.03125 292.5 C 110.03125 292.386719 110.113281 292.300781 110.316406 292.300781 C 110.601563 292.300781 111 292.214844 111.316406 292.15625 C 111.972656 292.011719 112.144531 291.296875 112.257813 290.324219 C 112.429688 288.921875 112.429688 286.289063 112.429688 283.085938 L 112.429688 277.21875 C 112.429688 272.011719 112.429688 271.066406 112.371094 270.007813 C 112.316406 268.863281 111.972656 268.289063 111.230469 268.117188 C 110.859375 268.03125 110.429688 268.003906 110.199219 268.003906 C 110.058594 268.003906 109.945313 267.917969 109.945313 267.804688 C 109.945313 267.601563 110.113281 267.515625 110.460938 267.515625 C 111.574219 267.515625 113.65625 267.632813 113.828125 267.632813 C 114 267.632813 116.085938 267.515625 117.085938 267.515625 C 117.460938 267.515625 117.628906 267.601563 117.628906 267.804688 C 117.628906 267.917969 117.488281 268.003906 117.371094 268.003906 C 117.144531 268.003906 116.945313 268.03125 116.542969 268.089844 C 115.628906 268.261719 115.371094 268.835938 115.316406 270.007813 C 115.230469 271.066406 115.230469 272.011719 115.230469 277.21875 "/>
<path style=" stroke:none;fill-rule:nonzero;fill:rgb(50.999451%,50.59967%,50.59967%);fill-opacity:1;" d="M 134.316406 288.695313 C 136.257813 284.199219 140.714844 272.554688 141.460938 270.152344 C 141.628906 269.664063 141.746094 269.207031 141.746094 268.890625 C 141.746094 268.632813 141.660156 268.289063 141.316406 268.117188 C 140.914063 268.003906 140.429688 268.003906 140.058594 268.003906 C 139.859375 268.003906 139.6875 267.945313 139.6875 267.804688 C 139.6875 267.605469 139.886719 267.515625 140.429688 267.515625 C 141.746094 267.515625 143.289063 267.632813 143.6875 267.632813 C 143.886719 267.632813 145.316406 267.515625 146.289063 267.515625 C 146.660156 267.515625 146.859375 267.605469 146.859375 267.746094 C 146.859375 267.917969 146.714844 268.003906 146.460938 268.003906 C 146.230469 268.003906 145.484375 268.003906 144.859375 268.40625 C 144.429688 268.691406 143.914063 269.261719 143.027344 271.523438 C 142.660156 272.46875 141.003906 276.476563 139.289063 280.566406 C 137.257813 285.460938 135.746094 289.039063 135.003906 290.695313 C 134.058594 292.699219 133.914063 293.214844 133.601563 293.214844 C 133.203125 293.214844 133.027344 292.757813 132.402344 291.15625 L 124.230469 270.695313 C 123.484375 268.835938 123.003906 268.460938 121.828125 268.117188 C 121.34375 268.003906 120.773438 268.003906 120.570313 268.003906 C 120.371094 268.003906 120.289063 267.890625 120.289063 267.746094 C 120.289063 267.574219 120.628906 267.515625 121.171875 267.515625 C 122.773438 267.515625 124.660156 267.632813 125.058594 267.632813 C 125.402344 267.632813 126.886719 267.515625 128.171875 267.515625 C 128.773438 267.515625 129.058594 267.605469 129.058594 267.746094 C 129.058594 267.917969 128.972656 268.003906 128.714844 268.003906 C 128.371094 268.003906 127.773438 268.03125 127.460938 268.148438 C 127.085938 268.320313 127.027344 268.605469 127.027344 268.835938 C 127.027344 269.261719 127.429688 270.292969 127.914063 271.609375 "/>
<path style=" stroke:none;fill-rule:nonzero;fill:rgb(50.999451%,50.59967%,50.59967%);fill-opacity:1;" d="M 151.828125 277.21875 C 151.828125 272.011719 151.828125 271.066406 151.746094 270.007813 C 151.6875 268.863281 151.429688 268.320313 150.316406 268.089844 C 150.058594 268.03125 149.488281 268.003906 149.171875 268.003906 C 149.058594 268.003906 148.914063 267.917969 148.914063 267.804688 C 148.914063 267.601563 149.085938 267.515625 149.460938 267.515625 C 150.230469 267.515625 151.117188 267.515625 151.859375 267.574219 L 153.230469 267.632813 C 153.460938 267.632813 160.085938 267.632813 160.859375 267.601563 C 161.488281 267.574219 162 267.488281 162.289063 267.433594 C 162.460938 267.402344 162.574219 267.261719 162.746094 267.261719 C 162.859375 267.261719 162.886719 267.402344 162.886719 267.574219 C 162.886719 267.804688 162.714844 268.203125 162.601563 269.117188 C 162.574219 269.464844 162.515625 270.921875 162.460938 271.324219 C 162.402344 271.492188 162.34375 271.695313 162.203125 271.695313 C 162 271.695313 161.945313 271.523438 161.945313 271.265625 C 161.945313 271.035156 161.914063 270.464844 161.746094 270.066406 C 161.515625 269.519531 161.171875 269.117188 159.371094 268.917969 C 158.800781 268.863281 155.171875 268.835938 154.828125 268.835938 C 154.6875 268.835938 154.628906 268.917969 154.628906 269.148438 L 154.628906 278.363281 C 154.628906 278.621094 154.660156 278.707031 154.828125 278.707031 C 155.257813 278.707031 159.34375 278.707031 160.117188 278.648438 C 160.914063 278.5625 161.371094 278.507813 161.6875 278.160156 C 161.914063 277.90625 162.058594 277.734375 162.171875 277.734375 C 162.289063 277.734375 162.34375 277.789063 162.34375 278.019531 C 162.34375 278.191406 162.171875 278.765625 162.085938 279.878906 C 162 280.535156 161.945313 281.769531 161.945313 281.996094 C 161.945313 282.285156 161.945313 282.65625 161.714844 282.65625 C 161.542969 282.65625 161.488281 282.511719 161.488281 282.34375 C 161.488281 281.996094 161.488281 281.683594 161.34375 281.253906 C 161.203125 280.765625 160.914063 280.222656 159.601563 280.078125 C 158.714844 279.964844 155.429688 279.910156 154.859375 279.910156 C 154.6875 279.910156 154.628906 279.992188 154.628906 280.136719 L 154.628906 283.085938 C 154.628906 284.199219 154.574219 288.09375 154.628906 288.78125 C 154.714844 291.097656 155.230469 291.527344 158.488281 291.527344 C 159.34375 291.527344 160.800781 291.527344 161.6875 291.15625 C 162.542969 290.78125 162.945313 290.125 163.171875 288.75 C 163.257813 288.378906 163.316406 288.265625 163.488281 288.265625 C 163.6875 288.265625 163.6875 288.519531 163.6875 288.75 C 163.6875 289.007813 163.402344 291.300781 163.257813 291.984375 C 163 292.84375 162.746094 292.84375 161.460938 292.84375 C 158.945313 292.84375 157.117188 292.785156 155.800781 292.757813 C 154.515625 292.699219 153.714844 292.640625 153.230469 292.640625 C 153.144531 292.640625 152.574219 292.640625 151.886719 292.699219 C 151.230469 292.699219 150.460938 292.757813 149.945313 292.757813 C 149.574219 292.757813 149.429688 292.699219 149.429688 292.5 C 149.429688 292.386719 149.488281 292.300781 149.6875 292.300781 C 149.972656 292.300781 150.371094 292.214844 150.6875 292.15625 C 151.34375 292.011719 151.515625 291.300781 151.660156 290.324219 C 151.828125 288.921875 151.828125 286.289063 151.828125 283.085938 "/>
<path style=" stroke:none;fill-rule:nonzero;fill:rgb(50.999451%,50.59967%,50.59967%);fill-opacity:1;" d="M 174.800781 280.109375 C 174.800781 280.28125 174.886719 280.394531 175.03125 280.507813 C 175.542969 280.796875 177.085938 281.054688 178.542969 281.054688 C 179.34375 281.054688 180.257813 280.9375 181.03125 280.394531 C 182.199219 279.621094 183.058594 277.789063 183.058594 275.273438 C 183.058594 271.09375 180.859375 268.605469 177.316406 268.605469 C 176.316406 268.605469 175.402344 268.691406 175.085938 268.804688 C 174.914063 268.863281 174.800781 269.007813 174.800781 269.207031 Z M 172.144531 277.21875 C 172.144531 272.011719 172.144531 271.066406 172.085938 270.007813 C 172 268.863281 171.742188 268.320313 170.628906 268.089844 C 170.371094 268.03125 169.800781 268.003906 169.515625 268.003906 C 169.371094 268.003906 169.230469 267.917969 169.230469 267.804688 C 169.230469 267.605469 169.402344 267.515625 169.773438 267.515625 C 171.285156 267.515625 173.371094 267.632813 173.542969 267.632813 C 173.914063 267.632813 176.429688 267.515625 177.488281 267.515625 C 179.570313 267.515625 181.800781 267.71875 183.570313 269.007813 C 184.402344 269.605469 185.859375 271.238281 185.859375 273.527344 C 185.859375 276.015625 184.828125 278.476563 181.828125 281.253906 C 184.570313 284.746094 186.828125 287.722656 188.773438 289.78125 C 190.570313 291.699219 192 292.042969 192.828125 292.183594 C 193.457031 292.300781 193.945313 292.300781 194.144531 292.300781 C 194.285156 292.300781 194.429688 292.386719 194.429688 292.5 C 194.429688 292.699219 194.230469 292.757813 193.628906 292.757813 L 191.257813 292.757813 C 189.402344 292.757813 188.570313 292.585938 187.714844 292.128906 C 186.257813 291.355469 185.113281 289.722656 183.199219 287.207031 C 181.800781 285.375 180.230469 283.140625 179.570313 282.285156 C 179.429688 282.140625 179.34375 282.085938 179.144531 282.085938 L 175.03125 281.996094 C 174.886719 281.996094 174.800781 282.113281 174.800781 282.285156 L 174.800781 283.085938 C 174.800781 286.289063 174.800781 288.921875 174.972656 290.324219 C 175.085938 291.296875 175.285156 292.011719 176.285156 292.15625 C 176.742188 292.214844 177.488281 292.300781 177.773438 292.300781 C 177.972656 292.300781 178.03125 292.386719 178.03125 292.5 C 178.03125 292.640625 177.859375 292.757813 177.515625 292.757813 C 175.6875 292.757813 173.570313 292.640625 173.402344 292.640625 C 173.371094 292.640625 171.285156 292.757813 170.285156 292.757813 C 169.914063 292.757813 169.742188 292.699219 169.742188 292.5 C 169.742188 292.386719 169.800781 292.300781 170 292.300781 C 170.316406 292.300781 170.714844 292.214844 171 292.15625 C 171.6875 292.011719 171.828125 291.296875 171.972656 290.324219 C 172.144531 288.921875 172.144531 286.289063 172.144531 283.085938 "/>
<path style=" stroke:none;fill-rule:nonzero;fill:rgb(50.999451%,50.59967%,50.59967%);fill-opacity:1;" d="M 194.800781 292.328125 C 194.34375 292.097656 194.285156 291.953125 194.285156 291.039063 C 194.285156 289.378906 194.429688 288.0625 194.457031 287.519531 C 194.488281 287.148438 194.570313 286.976563 194.714844 286.976563 C 194.945313 286.976563 194.972656 287.089844 194.972656 287.347656 C 194.972656 287.664063 194.972656 288.121094 195.058594 288.578125 C 195.570313 291.039063 197.773438 291.984375 200 291.984375 C 203.199219 291.984375 204.773438 289.695313 204.773438 287.550781 C 204.773438 285.261719 203.800781 283.914063 200.914063 281.539063 L 199.429688 280.308594 C 195.886719 277.417969 195.085938 275.328125 195.085938 273.070313 C 195.085938 269.492188 197.773438 267.058594 202 267.058594 C 203.285156 267.058594 204.257813 267.203125 205.085938 267.402344 C 205.714844 267.515625 206 267.574219 206.257813 267.574219 C 206.515625 267.574219 206.601563 267.632813 206.601563 267.804688 C 206.601563 267.945313 206.457031 269.0625 206.457031 271.324219 C 206.457031 271.867188 206.402344 272.097656 206.230469 272.097656 C 206.03125 272.097656 206 271.925781 205.945313 271.664063 C 205.914063 271.265625 205.714844 270.351563 205.515625 270.007813 C 205.316406 269.636719 204.429688 268.230469 201.371094 268.230469 C 199.058594 268.230469 197.257813 269.664063 197.257813 272.097656 C 197.257813 274.015625 198.113281 275.214844 201.316406 277.703125 L 202.257813 278.449219 C 206.199219 281.539063 207.113281 283.601563 207.113281 286.289063 C 207.113281 287.664063 206.601563 290.183594 204.285156 291.8125 C 202.859375 292.8125 201.058594 293.214844 199.257813 293.214844 C 197.6875 293.214844 196.171875 292.984375 194.800781 292.328125 "/>
<path style=" stroke:none;fill-rule:nonzero;fill:rgb(50.999451%,50.59967%,50.59967%);fill-opacity:1;" d="M 218.714844 283.085938 C 218.714844 286.289063 218.714844 288.921875 218.886719 290.324219 C 218.972656 291.296875 219.171875 292.011719 220.171875 292.15625 C 220.65625 292.214844 221.371094 292.300781 221.6875 292.300781 C 221.886719 292.300781 221.945313 292.386719 221.945313 292.5 C 221.945313 292.644531 221.773438 292.757813 221.429688 292.757813 C 219.570313 292.757813 217.484375 292.644531 217.316406 292.644531 C 217.144531 292.644531 215.058594 292.757813 214.058594 292.757813 C 213.6875 292.757813 213.515625 292.699219 213.515625 292.5 C 213.515625 292.386719 213.601563 292.300781 213.800781 292.300781 C 214.089844 292.300781 214.484375 292.214844 214.800781 292.15625 C 215.457031 292.011719 215.628906 291.296875 215.742188 290.324219 C 215.914063 288.921875 215.914063 286.289063 215.914063 283.085938 L 215.914063 277.21875 C 215.914063 272.011719 215.914063 271.066406 215.859375 270.007813 C 215.800781 268.863281 215.457031 268.289063 214.714844 268.117188 C 214.34375 268.03125 213.914063 268.003906 213.6875 268.003906 C 213.542969 268.003906 213.429688 267.917969 213.429688 267.804688 C 213.429688 267.601563 213.601563 267.515625 213.945313 267.515625 C 215.058594 267.515625 217.144531 267.632813 217.316406 267.632813 C 217.484375 267.632813 219.570313 267.515625 220.570313 267.515625 C 220.945313 267.515625 221.113281 267.601563 221.113281 267.804688 C 221.113281 267.917969 220.972656 268.003906 220.859375 268.003906 C 220.628906 268.003906 220.429688 268.03125 220.027344 268.089844 C 219.113281 268.261719 218.859375 268.835938 218.773438 270.007813 C 218.714844 271.066406 218.714844 272.011719 218.714844 277.21875 "/>
<path style=" stroke:none;fill-rule:nonzero;fill:rgb(50.999451%,50.59967%,50.59967%);fill-opacity:1;" d="M 233.371094 280.796875 C 233.371094 284.34375 233.402344 287.40625 233.460938 288.0625 C 233.488281 288.894531 233.542969 290.210938 233.800781 290.582031 C 234.257813 291.210938 235.542969 291.925781 239.488281 291.925781 C 242.574219 291.925781 245.429688 290.78125 247.402344 288.808594 C 249.144531 287.117188 250.058594 283.914063 250.058594 280.851563 C 250.058594 276.617188 248.230469 273.871094 246.886719 272.4375 C 243.746094 269.121094 239.945313 268.660156 235.972656 268.660156 C 235.316406 268.660156 234.085938 268.746094 233.800781 268.890625 C 233.515625 269.035156 233.402344 269.207031 233.402344 269.550781 C 233.371094 270.691406 233.371094 274.097656 233.371094 276.675781 Z M 230.574219 277.21875 C 230.574219 272.011719 230.574219 271.066406 230.515625 270.007813 C 230.460938 268.863281 230.171875 268.316406 229.085938 268.089844 C 228.800781 268.03125 228.257813 268.003906 227.945313 268.003906 C 227.800781 268.003906 227.6875 267.917969 227.6875 267.804688 C 227.6875 267.601563 227.859375 267.515625 228.230469 267.515625 C 229.714844 267.515625 231.800781 267.632813 231.972656 267.632813 C 232.371094 267.632813 234.488281 267.515625 236.488281 267.515625 C 239.773438 267.515625 245.886719 267.230469 249.828125 271.324219 C 251.515625 273.070313 253.058594 275.84375 253.058594 279.792969 C 253.058594 284 251.34375 287.261719 249.460938 289.207031 C 248.03125 290.726563 245.03125 293.042969 239.371094 293.042969 C 237.945313 293.042969 236.171875 292.957031 234.746094 292.84375 C 233.289063 292.757813 232.144531 292.644531 231.972656 292.644531 C 231.914063 292.644531 231.34375 292.644531 230.660156 292.699219 C 229.972656 292.699219 229.203125 292.757813 228.714844 292.757813 C 228.34375 292.757813 228.171875 292.699219 228.171875 292.5 C 228.171875 292.386719 228.257813 292.300781 228.460938 292.300781 C 228.746094 292.300781 229.144531 292.214844 229.460938 292.15625 C 230.117188 292.011719 230.289063 291.296875 230.402344 290.324219 C 230.574219 288.921875 230.574219 286.289063 230.574219 283.085938 "/>
<path style=" stroke:none;fill-rule:nonzero;fill:rgb(50.999451%,50.59967%,50.59967%);fill-opacity:1;" d="M 269.058594 281.710938 C 269.230469 281.710938 269.230469 281.597656 269.199219 281.480469 L 266.03125 272.46875 C 265.859375 271.953125 265.6875 271.953125 265.542969 272.46875 L 262.601563 281.480469 C 262.542969 281.652344 262.601563 281.710938 262.714844 281.710938 Z M 265.601563 268.347656 C 266 267.261719 266.144531 267.058594 266.34375 267.058594 C 266.542969 267.058594 266.65625 267.230469 267.058594 268.261719 C 267.574219 269.519531 272.800781 283.3125 274.828125 288.378906 C 276.03125 291.355469 277 291.898438 277.6875 292.097656 C 278.199219 292.242188 278.6875 292.300781 279.03125 292.300781 C 279.230469 292.300781 279.371094 292.328125 279.371094 292.5 C 279.371094 292.699219 279.058594 292.757813 278.6875 292.757813 C 278.199219 292.757813 275.773438 292.757813 273.457031 292.699219 C 272.828125 292.644531 272.457031 292.644531 272.457031 292.441406 C 272.457031 292.328125 272.574219 292.242188 272.6875 292.214844 C 272.886719 292.15625 273.085938 291.871094 272.886719 291.324219 L 269.800781 283.113281 C 269.742188 282.96875 269.65625 282.914063 269.488281 282.914063 L 262.34375 282.914063 C 262.171875 282.914063 262.058594 283 262 283.171875 L 260 289.09375 C 259.714844 289.925781 259.542969 290.726563 259.542969 291.324219 C 259.542969 291.984375 260.230469 292.300781 260.800781 292.300781 L 261.144531 292.300781 C 261.371094 292.300781 261.457031 292.355469 261.457031 292.5 C 261.457031 292.699219 261.257813 292.757813 260.972656 292.757813 C 260.171875 292.757813 258.742188 292.644531 258.371094 292.644531 C 258 292.644531 256.171875 292.757813 254.601563 292.757813 C 254.171875 292.757813 253.972656 292.699219 253.972656 292.5 C 253.972656 292.355469 254.117188 292.300781 254.257813 292.300781 C 254.515625 292.300781 254.972656 292.242188 255.230469 292.214844 C 256.773438 292.011719 257.429688 290.753906 258.03125 289.09375 "/>
<path style=" stroke:none;fill-rule:nonzero;fill:rgb(50.999451%,50.59967%,50.59967%);fill-opacity:1;" d="M 286.914063 280.796875 C 286.914063 284.34375 286.972656 287.40625 287 288.0625 C 287.03125 288.894531 287.085938 290.210938 287.34375 290.582031 C 287.800781 291.210938 289.085938 291.925781 293.03125 291.925781 C 296.117188 291.925781 298.972656 290.78125 300.941406 288.808594 C 302.6875 287.117188 303.628906 283.914063 303.628906 280.851563 C 303.628906 276.617188 301.773438 273.871094 300.429688 272.4375 C 297.285156 269.121094 293.484375 268.660156 289.515625 268.660156 C 288.859375 268.660156 287.628906 268.746094 287.34375 268.890625 C 287.058594 269.035156 286.972656 269.207031 286.972656 269.550781 C 286.914063 270.691406 286.914063 274.097656 286.914063 276.675781 Z M 284.117188 277.21875 C 284.117188 272.011719 284.117188 271.066406 284.058594 270.007813 C 284 268.863281 283.714844 268.316406 282.628906 268.089844 C 282.371094 268.03125 281.800781 268.003906 281.484375 268.003906 C 281.371094 268.003906 281.230469 267.917969 281.230469 267.804688 C 281.230469 267.601563 281.402344 267.515625 281.773438 267.515625 C 283.257813 267.515625 285.34375 267.632813 285.515625 267.632813 C 285.914063 267.632813 288.03125 267.515625 290.03125 267.515625 C 293.316406 267.515625 299.429688 267.230469 303.371094 271.324219 C 305.058594 273.070313 306.628906 275.84375 306.628906 279.792969 C 306.628906 284 304.886719 287.261719 303.03125 289.207031 C 301.574219 290.726563 298.574219 293.042969 292.914063 293.042969 C 291.484375 293.042969 289.714844 292.957031 288.289063 292.84375 C 286.828125 292.757813 285.6875 292.644531 285.515625 292.644531 C 285.460938 292.644531 284.886719 292.644531 284.203125 292.699219 C 283.515625 292.699219 282.746094 292.757813 282.257813 292.757813 C 281.886719 292.757813 281.714844 292.699219 281.714844 292.5 C 281.714844 292.386719 281.800781 292.300781 282 292.300781 C 282.289063 292.300781 282.6875 292.214844 283 292.15625 C 283.660156 292.011719 283.828125 291.296875 283.972656 290.324219 C 284.117188 288.921875 284.117188 286.289063 284.117188 283.085938 "/>
<path style=" stroke:none;fill-rule:nonzero;fill:rgb(75.299072%,73.699951%,60.398865%);fill-opacity:1;" d="M 285.628906 180.550781 C 285.628906 180.550781 361.34375 132.589844 406.257813 181.609375 C 451.171875 230.601563 530.429688 257.703125 563.886719 202.445313 C 563.886719 202.445313 529.941406 289.839844 454.6875 279.621094 C 347.257813 265.027344 369.285156 141.976563 285.628906 180.550781 "/>
<path style=" stroke:none;fill-rule:nonzero;fill:rgb(95.698547%,61.599731%,13.299561%);fill-opacity:1;" d="M 364.027344 200.898438 C 364.027344 200.898438 415.058594 240.332031 449.371094 208.96875 C 483.65625 177.605469 541.089844 164.210938 561.855469 205.707031 C 561.855469 205.707031 542.429688 141.460938 488.6875 143.207031 C 412.003906 145.695313 421.171875 234.265625 364.027344 200.898438 "/>
<path style=" stroke:none;fill-rule:nonzero;fill:rgb(50.999451%,50.59967%,50.59967%);fill-opacity:1;" d="M 67.113281 356.945313 C 67.515625 356.945313 67.515625 356.714844 67.429688 356.398438 L 60 335.195313 C 59.601563 334.023438 59.203125 334.023438 58.800781 335.195313 L 51.914063 356.398438 C 51.742188 356.800781 51.914063 356.945313 52.144531 356.945313 Z M 58.972656 325.550781 C 59.914063 322.949219 60.230469 322.488281 60.6875 322.488281 C 61.171875 322.488281 61.488281 322.863281 62.429688 325.296875 C 63.601563 328.300781 75.914063 360.722656 80.6875 372.65625 C 83.515625 379.664063 85.800781 380.894531 87.429688 381.382813 C 88.601563 381.78125 89.773438 381.839844 90.574219 381.839844 C 91.03125 381.839844 91.34375 381.925781 91.34375 382.324219 C 91.34375 382.785156 90.65625 382.957031 89.773438 382.957031 C 88.601563 382.957031 82.886719 382.957031 77.488281 382.785156 C 75.972656 382.726563 75.113281 382.726563 75.113281 382.242188 C 75.113281 381.925781 75.371094 381.78125 75.65625 381.695313 C 76.144531 381.527344 76.601563 380.839844 76.144531 379.578125 L 68.859375 360.261719 C 68.6875 359.949219 68.542969 359.777344 68.144531 359.777344 L 51.285156 359.777344 C 50.886719 359.777344 50.65625 360.007813 50.515625 360.40625 L 45.800781 374.3125 C 45.085938 376.261719 44.6875 378.148438 44.6875 379.578125 C 44.6875 381.152344 46.34375 381.839844 47.6875 381.839844 L 48.457031 381.839844 C 49 381.839844 49.257813 382.011719 49.257813 382.324219 C 49.257813 382.785156 48.773438 382.957031 48.058594 382.957031 C 46.203125 382.957031 42.828125 382.726563 41.945313 382.726563 C 41.085938 382.726563 36.773438 382.957031 33.085938 382.957031 C 32.085938 382.957031 31.601563 382.785156 31.601563 382.324219 C 31.601563 382.011719 31.914063 381.839844 32.316406 381.839844 C 32.859375 381.839844 33.945313 381.78125 34.574219 381.695313 C 38.203125 381.210938 39.742188 378.234375 41.171875 374.3125 "/>
<path style=" stroke:none;fill-rule:nonzero;fill:rgb(50.999451%,50.59967%,50.59967%);fill-opacity:1;" d="M 98.03125 346.355469 C 98.03125 334.109375 98.03125 331.90625 97.859375 329.386719 C 97.714844 326.726563 97.085938 325.464844 94.488281 324.921875 C 93.859375 324.75 92.515625 324.664063 91.828125 324.664063 C 91.515625 324.664063 91.199219 324.523438 91.199219 324.207031 C 91.199219 323.75 91.601563 323.578125 92.460938 323.578125 C 95.972656 323.578125 100.773438 323.804688 101.460938 323.804688 C 102.171875 323.804688 106.886719 323.578125 109.230469 323.578125 C 110.085938 323.578125 110.488281 323.75 110.488281 324.207031 C 110.488281 324.523438 110.171875 324.664063 109.859375 324.664063 C 109.316406 324.664063 108.828125 324.75 107.886719 324.921875 C 105.773438 325.238281 105.144531 326.640625 105 329.386719 C 104.828125 331.90625 104.828125 334.109375 104.828125 346.355469 L 104.828125 357.34375 C 104.828125 368.648438 107.34375 373.511719 110.714844 376.746094 C 114.574219 380.351563 118.085938 381.066406 122.574219 381.066406 C 127.34375 381.066406 132.058594 378.777344 134.859375 375.402344 C 138.488281 370.9375 139.429688 364.269531 139.429688 356.171875 L 139.429688 346.355469 C 139.429688 334.109375 139.429688 331.90625 139.257813 329.386719 C 139.117188 326.726563 138.488281 325.464844 135.886719 324.921875 C 135.257813 324.75 133.945313 324.664063 133.230469 324.664063 C 132.914063 324.664063 132.601563 324.523438 132.601563 324.207031 C 132.601563 323.75 133 323.578125 133.859375 323.578125 C 137.371094 323.578125 141.6875 323.804688 142.171875 323.804688 C 142.714844 323.804688 146.402344 323.578125 148.742188 323.578125 C 149.601563 323.578125 150 323.75 150 324.207031 C 150 324.523438 149.6875 324.664063 149.371094 324.664063 C 148.828125 324.664063 148.34375 324.75 147.429688 324.921875 C 145.285156 325.378906 144.6875 326.640625 144.515625 329.386719 C 144.371094 331.90625 144.371094 334.109375 144.371094 346.355469 L 144.371094 354.769531 C 144.371094 363.238281 143.429688 372.65625 137.144531 378.234375 C 131.488281 383.269531 125.628906 384.042969 121 384.042969 C 118.316406 384.042969 110.402344 383.730469 104.828125 378.464844 C 101 374.773438 98.03125 369.277344 98.03125 357.832031 "/>
<path style=" stroke:none;fill-rule:nonzero;fill:rgb(50.999451%,50.59967%,50.59967%);fill-opacity:1;" d="M 184.34375 360.175781 C 184.34375 367.703125 184.34375 373.914063 184.742188 377.203125 C 184.972656 379.492188 185.457031 381.210938 187.800781 381.527344 C 188.886719 381.695313 190.628906 381.839844 191.316406 381.839844 C 191.800781 381.839844 191.945313 382.097656 191.945313 382.324219 C 191.945313 382.726563 191.574219 382.957031 190.6875 382.957031 C 186.402344 382.957031 181.457031 382.726563 181.058594 382.726563 C 180.65625 382.726563 175.714844 382.957031 173.371094 382.957031 C 172.515625 382.957031 172.113281 382.785156 172.113281 382.324219 C 172.113281 382.097656 172.285156 381.839844 172.742188 381.839844 C 173.457031 381.839844 174.402344 381.695313 175.085938 381.527344 C 176.65625 381.210938 177.058594 379.492188 177.371094 377.203125 C 177.773438 373.914063 177.773438 367.703125 177.773438 360.175781 L 177.773438 326.953125 L 166.171875 327.097656 C 161.285156 327.183594 159.402344 327.726563 158.171875 329.613281 C 157.285156 330.960938 157.058594 331.503906 156.828125 332.046875 C 156.601563 332.675781 156.34375 332.847656 156.03125 332.847656 C 155.800781 332.847656 155.65625 332.617188 155.65625 332.132813 C 155.65625 331.359375 157.230469 324.605469 157.371094 323.976563 C 157.542969 323.492188 157.859375 322.488281 158.171875 322.488281 C 158.714844 322.488281 159.488281 323.261719 161.601563 323.433594 C 163.886719 323.660156 166.859375 323.804688 167.800781 323.804688 L 197.199219 323.804688 C 199.714844 323.804688 201.515625 323.660156 202.773438 323.433594 C 203.945313 323.261719 204.65625 323.03125 204.972656 323.03125 C 205.371094 323.03125 205.371094 323.492188 205.371094 323.976563 C 205.371094 326.324219 205.113281 331.734375 205.113281 332.617188 C 205.113281 333.308594 204.886719 333.621094 204.574219 333.621094 C 204.199219 333.621094 204.03125 333.394531 203.945313 332.304688 L 203.886719 331.417969 C 203.628906 329.070313 201.742188 327.269531 194.230469 327.097656 L 184.34375 326.953125 "/>
<path style=" stroke:none;fill-rule:nonzero;fill:rgb(50.999451%,50.59967%,50.59967%);fill-opacity:1;" d="M 243.085938 381.066406 C 250.144531 381.066406 264.714844 376.976563 264.714844 354.140625 C 264.714844 335.28125 253.285156 325.152344 240.886719 325.152344 C 227.800781 325.152344 218 333.792969 218 350.992188 C 218 369.277344 228.972656 381.066406 243.085938 381.066406 M 241.429688 322.488281 C 259.085938 322.488281 272.257813 333.621094 272.257813 351.9375 C 272.257813 369.535156 259.859375 384.042969 240.972656 384.042969 C 219.488281 384.042969 210.542969 367.332031 210.542969 353.195313 C 210.542969 340.460938 219.800781 322.488281 241.429688 322.488281 "/>
<path style=" stroke:none;fill-rule:nonzero;fill:rgb(50.999451%,50.59967%,50.59967%);fill-opacity:1;" d="M 291 372.253906 C 291.144531 378.722656 291.914063 380.753906 294.058594 381.382813 C 295.542969 381.78125 297.257813 381.839844 297.972656 381.839844 C 298.371094 381.839844 298.601563 382.011719 298.601563 382.324219 C 298.601563 382.785156 298.117188 382.957031 297.171875 382.957031 C 292.714844 382.957031 289.574219 382.726563 288.859375 382.726563 C 288.171875 382.726563 284.859375 382.957031 281.34375 382.957031 C 280.542969 382.957031 280.085938 382.871094 280.085938 382.324219 C 280.085938 382.011719 280.316406 381.839844 280.714844 381.839844 C 281.34375 381.839844 282.742188 381.78125 283.914063 381.382813 C 285.886719 380.839844 286.285156 378.550781 286.285156 371.394531 L 286.371094 326.410156 C 286.371094 323.347656 286.601563 322.488281 287.230469 322.488281 C 287.859375 322.488281 289.171875 324.207031 289.972656 324.980469 C 291.144531 326.324219 302.828125 338.972656 314.914063 351.9375 C 322.65625 360.261719 331.199219 369.820313 333.714844 372.425781 L 332.855469 332.53125 C 332.773438 327.410156 332.230469 325.695313 329.800781 325.066406 C 328.398438 324.75 326.601563 324.664063 325.972656 324.664063 C 325.398438 324.664063 325.34375 324.4375 325.34375 324.121094 C 325.34375 323.660156 325.972656 323.578125 326.886719 323.578125 C 330.429688 323.578125 334.199219 323.804688 335.058594 323.804688 C 335.914063 323.804688 338.515625 323.578125 341.714844 323.578125 C 342.570313 323.578125 343.144531 323.660156 343.144531 324.121094 C 343.144531 324.4375 342.800781 324.664063 342.257813 324.664063 C 341.886719 324.664063 341.316406 324.664063 340.398438 324.921875 C 337.800781 325.464844 337.484375 327.183594 337.484375 331.902344 L 337.316406 377.917969 C 337.316406 383.097656 337.171875 383.5 336.628906 383.5 C 336.003906 383.5 335.058594 382.640625 330.886719 378.464844 C 330.027344 377.691406 318.742188 366.128906 310.429688 357.199219 C 301.34375 347.386719 292.488281 337.484375 289.972656 334.652344 "/>
<path style=" stroke:none;fill-rule:nonzero;fill:rgb(50.999451%,50.59967%,50.59967%);fill-opacity:1;" d="M 384.773438 381.066406 C 391.828125 381.066406 406.398438 376.976563 406.398438 354.140625 C 406.398438 335.28125 394.972656 325.152344 382.570313 325.152344 C 369.484375 325.152344 359.6875 333.792969 359.6875 350.992188 C 359.6875 369.277344 370.660156 381.066406 384.773438 381.066406 M 383.113281 322.488281 C 400.773438 322.488281 413.941406 333.621094 413.941406 351.9375 C 413.941406 369.535156 401.546875 384.042969 382.660156 384.042969 C 361.171875 384.042969 352.230469 367.332031 352.230469 353.195313 C 352.230469 340.460938 361.484375 322.488281 383.113281 322.488281 "/>
<path style=" stroke:none;fill-rule:nonzero;fill:rgb(50.999451%,50.59967%,50.59967%);fill-opacity:1;" d="M 490.460938 372.824219 C 490.773438 375.660156 491.316406 380.035156 494.6875 381.152344 C 496.972656 381.839844 499.003906 381.839844 499.800781 381.839844 C 500.171875 381.839844 500.429688 381.925781 500.429688 382.242188 C 500.429688 382.726563 499.714844 382.957031 498.773438 382.957031 C 497.058594 382.957031 488.570313 382.726563 485.6875 382.472656 C 483.886719 382.324219 483.484375 382.097656 483.484375 381.695313 C 483.484375 381.382813 483.628906 381.210938 484.027344 381.152344 C 484.429688 381.066406 484.515625 379.722656 484.34375 378.320313 L 480.570313 337.800781 L 480.34375 337.800781 L 461.144531 378.636719 C 459.484375 382.097656 459.257813 382.785156 458.546875 382.785156 C 458.003906 382.785156 457.601563 382.011719 456.113281 379.179688 C 454.089844 375.34375 447.34375 361.75 446.941406 360.949219 C 446.230469 359.546875 437.460938 340.6875 436.601563 338.570313 L 436.285156 338.570313 L 433.144531 375.03125 C 433.058594 376.261719 433.058594 377.691406 433.058594 379.035156 C 433.058594 380.210938 433.941406 381.210938 435.113281 381.46875 C 436.429688 381.78125 437.601563 381.839844 438.089844 381.839844 C 438.398438 381.839844 438.714844 382.011719 438.714844 382.242188 C 438.714844 382.785156 438.230469 382.957031 437.285156 382.957031 C 434.398438 382.957031 430.628906 382.726563 430.003906 382.726563 C 429.316406 382.726563 425.546875 382.957031 423.429688 382.957031 C 422.628906 382.957031 422.089844 382.785156 422.089844 382.242188 C 422.089844 382.011719 422.484375 381.839844 422.886719 381.839844 C 423.484375 381.839844 424.058594 381.839844 425.230469 381.609375 C 427.800781 381.152344 428.058594 378.089844 428.371094 375.085938 L 434.003906 323.890625 C 434.089844 323.035156 434.398438 322.488281 434.855469 322.488281 C 435.34375 322.488281 435.65625 322.804688 436.058594 323.660156 L 460.027344 373.054688 L 483.089844 323.746094 C 483.398438 323.035156 483.714844 322.488281 484.257813 322.488281 C 484.828125 322.488281 485.058594 323.117188 485.199219 324.605469 "/>
<path style=" stroke:none;fill-rule:nonzero;fill:rgb(50.999451%,50.59967%,50.59967%);fill-opacity:1;" d="M 535.460938 356.945313 C 535.855469 356.945313 535.855469 356.714844 535.773438 356.398438 L 528.34375 335.195313 C 527.941406 334.023438 527.546875 334.023438 527.171875 335.195313 L 520.257813 356.398438 C 520.089844 356.800781 520.257813 356.945313 520.484375 356.945313 Z M 527.316406 325.550781 C 528.257813 322.949219 528.570313 322.488281 529.027344 322.488281 C 529.515625 322.488281 529.828125 322.863281 530.773438 325.296875 C 531.941406 328.300781 544.257813 360.722656 549.027344 372.65625 C 551.855469 379.664063 554.144531 380.894531 555.773438 381.382813 C 556.941406 381.78125 558.144531 381.839844 558.914063 381.839844 C 559.371094 381.839844 559.714844 381.925781 559.714844 382.324219 C 559.714844 382.785156 559.003906 382.957031 558.144531 382.957031 C 556.941406 382.957031 551.230469 382.957031 545.828125 382.785156 C 544.34375 382.726563 543.460938 382.726563 543.460938 382.242188 C 543.460938 381.925781 543.714844 381.78125 544.027344 381.695313 C 544.484375 381.527344 544.972656 380.839844 544.484375 379.578125 L 537.199219 360.261719 C 537.027344 359.949219 536.886719 359.777344 536.484375 359.777344 L 519.628906 359.777344 C 519.230469 359.777344 519.003906 360.007813 518.855469 360.40625 L 514.144531 374.3125 C 513.429688 376.261719 513.058594 378.148438 513.058594 379.578125 C 513.058594 381.152344 514.6875 381.839844 516.027344 381.839844 L 516.800781 381.839844 C 517.34375 381.839844 517.601563 382.011719 517.601563 382.324219 C 517.601563 382.785156 517.113281 382.957031 516.429688 382.957031 C 514.546875 382.957031 511.171875 382.726563 510.316406 382.726563 C 509.429688 382.726563 505.113281 382.957031 501.429688 382.957031 C 500.429688 382.957031 499.941406 382.785156 499.941406 382.324219 C 499.941406 382.011719 500.257813 381.839844 500.65625 381.839844 C 501.199219 381.839844 502.316406 381.78125 502.941406 381.695313 C 506.546875 381.210938 508.113281 378.234375 509.515625 374.3125 "/>
<path style=" stroke:none;fill-rule:nonzero;fill:rgb(50.999451%,50.59967%,50.59967%);fill-opacity:1;" d="M 253.460938 314.476563 C 253.714844 314.964844 253.460938 315.136719 253.230469 315.136719 C 253.058594 315.136719 252.515625 315.019531 251.574219 315.136719 C 248.914063 315.394531 245.058594 316.652344 243.257813 317.425781 C 242.886719 317.597656 242.542969 317.710938 242.429688 317.710938 C 242.34375 317.710938 242.171875 317.597656 242.171875 317.367188 C 242.171875 317.222656 242.289063 317.109375 242.542969 316.9375 C 244.515625 315.566406 249.601563 312.503906 250 312.273438 C 250.914063 311.730469 251.257813 311.558594 251.542969 311.558594 C 251.6875 311.558594 251.800781 311.671875 252.085938 312.042969 C 252.460938 312.617188 252.828125 313.359375 253.460938 314.476563 "/>
<path style=" stroke:none;fill-rule:nonzero;fill:rgb(50.999451%,50.59967%,50.59967%);fill-opacity:1;" d="M 387.460938 416.980469 C 387.460938 420.53125 387.484375 423.589844 387.515625 424.222656 C 387.570313 425.078125 387.628906 426.394531 387.886719 426.769531 C 388.34375 427.398438 389.628906 428.113281 393.570313 428.113281 C 396.65625 428.113281 399.515625 426.96875 401.484375 424.992188 C 403.230469 423.304688 404.144531 420.101563 404.144531 417.039063 C 404.144531 412.773438 402.316406 410.054688 400.972656 408.625 C 397.828125 405.304688 394.027344 404.847656 390.058594 404.847656 C 389.398438 404.847656 388.171875 404.933594 387.886719 405.078125 C 387.601563 405.21875 387.484375 405.390625 387.484375 405.734375 C 387.460938 406.878906 387.460938 410.285156 387.460938 412.859375 Z M 384.65625 413.375 C 384.65625 408.195313 384.65625 407.253906 384.601563 406.191406 C 384.546875 405.046875 384.257813 404.503906 383.171875 404.277344 C 382.886719 404.21875 382.34375 404.191406 382.027344 404.191406 C 381.914063 404.191406 381.773438 404.105469 381.773438 403.988281 C 381.773438 403.789063 381.941406 403.703125 382.316406 403.703125 C 383.800781 403.703125 385.886719 403.816406 386.058594 403.816406 C 386.460938 403.816406 388.570313 403.703125 390.570313 403.703125 C 393.855469 403.703125 399.972656 403.417969 403.914063 407.507813 C 405.601563 409.253906 407.144531 412.03125 407.144531 415.980469 C 407.144531 420.1875 405.429688 423.417969 403.546875 425.394531 C 402.113281 426.910156 399.113281 429.230469 393.460938 429.230469 C 392.027344 429.230469 390.257813 429.144531 388.828125 429.027344 C 387.371094 428.941406 386.230469 428.828125 386.058594 428.828125 C 386.003906 428.828125 385.429688 428.828125 384.742188 428.886719 C 384.058594 428.886719 383.285156 428.941406 382.800781 428.941406 C 382.429688 428.941406 382.257813 428.886719 382.257813 428.683594 C 382.257813 428.570313 382.34375 428.484375 382.546875 428.484375 C 382.828125 428.484375 383.230469 428.398438 383.546875 428.34375 C 384.199219 428.199219 384.371094 427.484375 384.484375 426.511719 C 384.65625 425.109375 384.65625 422.476563 384.65625 419.269531 "/>
<path style=" stroke:none;fill-rule:nonzero;fill:rgb(50.999451%,50.59967%,50.59967%);fill-opacity:1;" d="M 414.886719 413.375 C 414.886719 408.195313 414.886719 407.25 414.828125 406.191406 C 414.742188 405.046875 414.488281 404.503906 413.402344 404.273438 C 413.117188 404.21875 412.546875 404.1875 412.257813 404.1875 C 412.117188 404.1875 412.003906 404.105469 412.003906 403.988281 C 412.003906 403.789063 412.144531 403.703125 412.515625 403.703125 C 413.285156 403.703125 414.171875 403.703125 414.914063 403.730469 L 416.285156 403.816406 C 416.515625 403.816406 423.144531 403.816406 423.914063 403.789063 C 424.546875 403.730469 425.089844 403.675781 425.34375 403.617188 C 425.515625 403.589844 425.65625 403.445313 425.800781 403.445313 C 425.914063 403.445313 425.945313 403.589844 425.945313 403.730469 C 425.945313 403.988281 425.773438 404.390625 425.6875 405.304688 C 425.65625 405.648438 425.574219 407.109375 425.515625 407.507813 C 425.488281 407.679688 425.429688 407.882813 425.285156 407.882813 C 425.089844 407.882813 425.03125 407.710938 425.03125 407.449219 C 425.03125 407.222656 424.972656 406.648438 424.800781 406.25 C 424.574219 405.707031 424.257813 405.304688 422.460938 405.105469 C 421.886719 405.046875 418.257813 405.019531 417.886719 405.019531 C 417.742188 405.019531 417.6875 405.105469 417.6875 405.335938 L 417.6875 414.546875 C 417.6875 414.777344 417.714844 414.890625 417.886719 414.890625 C 418.316406 414.890625 422.429688 414.890625 423.171875 414.835938 C 423.972656 414.75 424.460938 414.691406 424.742188 414.347656 C 424.972656 414.089844 425.117188 413.917969 425.257813 413.917969 C 425.34375 413.917969 425.429688 413.976563 425.429688 414.175781 C 425.429688 414.378906 425.257813 414.949219 425.144531 416.066406 C 425.089844 416.722656 425.03125 417.953125 425.03125 418.183594 C 425.03125 418.46875 425.03125 418.839844 424.773438 418.839844 C 424.628906 418.839844 424.546875 418.695313 424.546875 418.527344 C 424.546875 418.183594 424.546875 417.867188 424.402344 417.4375 C 424.285156 416.953125 423.972656 416.378906 422.6875 416.265625 C 421.773438 416.148438 418.488281 416.09375 417.914063 416.09375 C 417.742188 416.09375 417.6875 416.179688 417.6875 416.320313 L 417.6875 419.269531 C 417.6875 420.386719 417.65625 424.277344 417.6875 424.964844 C 417.773438 427.28125 418.285156 427.710938 421.546875 427.710938 C 422.429688 427.710938 423.886719 427.710938 424.742188 427.339844 C 425.628906 426.96875 426.03125 426.308594 426.257813 424.9375 C 426.316406 424.5625 426.371094 424.421875 426.546875 424.421875 C 426.742188 424.421875 426.742188 424.707031 426.742188 424.9375 C 426.742188 425.191406 426.488281 427.484375 426.316406 428.171875 C 426.089844 429.027344 425.800781 429.027344 424.515625 429.027344 C 422.03125 429.027344 420.171875 428.972656 418.886719 428.941406 C 417.574219 428.886719 416.800781 428.828125 416.285156 428.828125 C 416.230469 428.828125 415.65625 428.828125 414.945313 428.886719 C 414.285156 428.886719 413.515625 428.941406 413.03125 428.941406 C 412.65625 428.941406 412.488281 428.886719 412.488281 428.683594 C 412.488281 428.570313 412.546875 428.484375 412.742188 428.484375 C 413.058594 428.484375 413.460938 428.398438 413.742188 428.34375 C 414.429688 428.199219 414.574219 427.484375 414.714844 426.511719 C 414.886719 425.105469 414.886719 422.476563 414.886719 419.269531 "/>
<path style=" stroke:none;fill-rule:nonzero;fill:rgb(50.999451%,50.59967%,50.59967%);fill-opacity:1;" d="M 438.003906 419.328125 C 438.003906 424.222656 438.144531 426.367188 438.742188 426.96875 C 439.285156 427.511719 440.144531 427.742188 442.742188 427.742188 C 444.515625 427.742188 445.972656 427.710938 446.773438 426.738281 C 447.199219 426.195313 447.546875 425.367188 447.628906 424.734375 C 447.65625 424.476563 447.742188 424.308594 447.941406 424.308594 C 448.113281 424.308594 448.144531 424.421875 448.144531 424.792969 C 448.144531 425.164063 447.914063 427.167969 447.628906 428.140625 C 447.398438 428.914063 447.316406 429.027344 445.546875 429.027344 C 443.144531 429.027344 441.398438 428.972656 440.003906 428.941406 C 438.601563 428.886719 437.570313 428.828125 436.601563 428.828125 C 436.484375 428.828125 435.914063 428.886719 435.257813 428.886719 C 434.570313 428.914063 433.855469 428.941406 433.34375 428.941406 C 432.972656 428.941406 432.800781 428.886719 432.800781 428.683594 C 432.800781 428.570313 432.886719 428.484375 433.089844 428.484375 C 433.371094 428.484375 433.773438 428.398438 434.089844 428.34375 C 434.742188 428.199219 434.914063 427.484375 435.027344 426.511719 C 435.199219 425.105469 435.199219 422.476563 435.199219 419.269531 L 435.199219 413.375 C 435.199219 408.195313 435.199219 407.25 435.144531 406.191406 C 435.089844 405.046875 434.800781 404.503906 433.714844 404.277344 C 433.460938 404.21875 432.886719 404.1875 432.570313 404.1875 C 432.460938 404.1875 432.316406 404.101563 432.316406 403.988281 C 432.316406 403.789063 432.484375 403.703125 432.855469 403.703125 C 434.34375 403.703125 436.429688 403.816406 436.601563 403.816406 C 436.773438 403.816406 439.199219 403.703125 440.199219 403.703125 C 440.570313 403.703125 440.742188 403.789063 440.742188 403.988281 C 440.742188 404.101563 440.601563 404.1875 440.484375 404.1875 C 440.230469 404.1875 439.773438 404.21875 439.371094 404.277344 C 438.398438 404.445313 438.144531 405.019531 438.089844 406.191406 C 438.003906 407.25 438.003906 408.195313 438.003906 413.375 "/>
<path style=" stroke:none;fill-rule:nonzero;fill:rgb(50.999451%,50.59967%,50.59967%);fill-opacity:1;" d="M 467.914063 413.375 C 467.914063 408.195313 467.914063 407.25 467.855469 406.191406 C 467.800781 405.046875 467.546875 404.503906 466.429688 404.273438 C 466.171875 404.21875 465.601563 404.1875 465.285156 404.1875 C 465.171875 404.1875 465.027344 404.105469 465.027344 403.988281 C 465.027344 403.789063 465.199219 403.703125 465.570313 403.703125 C 467.058594 403.703125 469.058594 403.816406 469.316406 403.816406 C 470.058594 403.816406 472.003906 403.703125 473.515625 403.703125 C 477.6875 403.703125 479.199219 405.105469 479.714844 405.621094 C 480.460938 406.308594 481.398438 407.824219 481.398438 409.597656 C 481.398438 414.320313 477.914063 417.523438 473.199219 417.523438 C 473.027344 417.523438 472.65625 417.523438 472.484375 417.496094 C 472.316406 417.496094 472.113281 417.4375 472.113281 417.265625 C 472.113281 416.980469 472.316406 416.953125 473.027344 416.953125 C 476.257813 416.953125 478.800781 414.578125 478.800781 411.515625 C 478.800781 410.429688 478.6875 408.195313 476.914063 406.394531 C 475.171875 404.589844 473.113281 404.703125 472.371094 404.703125 C 471.800781 404.703125 471.230469 404.789063 470.914063 404.902344 C 470.714844 404.988281 470.65625 405.21875 470.65625 405.535156 L 470.65625 419.269531 C 470.65625 422.476563 470.65625 425.105469 470.828125 426.511719 C 470.914063 427.484375 471.113281 428.199219 472.113281 428.34375 C 472.601563 428.398438 473.316406 428.484375 473.628906 428.484375 C 473.828125 428.484375 473.886719 428.570313 473.886719 428.683594 C 473.886719 428.828125 473.714844 428.941406 473.371094 428.941406 C 471.546875 428.941406 469.429688 428.828125 469.257813 428.828125 C 469.171875 428.828125 467.058594 428.941406 466.058594 428.941406 C 465.6875 428.941406 465.546875 428.886719 465.546875 428.683594 C 465.546875 428.570313 465.601563 428.484375 465.800781 428.484375 C 466.089844 428.484375 466.484375 428.398438 466.800781 428.34375 C 467.460938 428.199219 467.628906 427.484375 467.773438 426.511719 C 467.914063 425.105469 467.914063 422.476563 467.914063 419.269531 "/>
<path style=" stroke:none;fill-rule:nonzero;fill:rgb(50.999451%,50.59967%,50.59967%);fill-opacity:1;" d="M 488.828125 413.375 C 488.828125 408.195313 488.828125 407.25 488.742188 406.191406 C 488.6875 405.046875 488.429688 404.503906 487.316406 404.273438 C 487.058594 404.21875 486.484375 404.1875 486.199219 404.1875 C 486.058594 404.1875 485.914063 404.105469 485.914063 403.988281 C 485.914063 403.789063 486.089844 403.703125 486.460938 403.703125 C 487.230469 403.703125 488.113281 403.703125 488.855469 403.730469 L 490.230469 403.816406 C 490.460938 403.816406 497.089844 403.816406 497.855469 403.789063 C 498.484375 403.730469 499.003906 403.675781 499.285156 403.617188 C 499.460938 403.589844 499.570313 403.445313 499.742188 403.445313 C 499.855469 403.445313 499.886719 403.589844 499.886719 403.730469 C 499.886719 403.988281 499.714844 404.390625 499.601563 405.304688 C 499.570313 405.648438 499.515625 407.109375 499.460938 407.507813 C 499.429688 407.679688 499.34375 407.882813 499.199219 407.882813 C 499.003906 407.882813 498.941406 407.710938 498.941406 407.449219 C 498.941406 407.222656 498.914063 406.648438 498.742188 406.25 C 498.515625 405.707031 498.171875 405.304688 496.371094 405.105469 C 495.828125 405.046875 492.171875 405.019531 491.828125 405.019531 C 491.6875 405.019531 491.628906 405.105469 491.628906 405.335938 L 491.628906 414.546875 C 491.628906 414.777344 491.65625 414.890625 491.828125 414.890625 C 492.257813 414.890625 496.34375 414.890625 497.113281 414.835938 C 497.914063 414.75 498.371094 414.691406 498.6875 414.347656 C 498.914063 414.089844 499.058594 413.917969 499.171875 413.917969 C 499.285156 413.917969 499.34375 413.976563 499.34375 414.175781 C 499.34375 414.378906 499.171875 414.949219 499.089844 416.066406 C 499.003906 416.722656 498.941406 417.953125 498.941406 418.183594 C 498.941406 418.46875 498.941406 418.839844 498.714844 418.839844 C 498.546875 418.839844 498.484375 418.695313 498.484375 418.527344 C 498.484375 418.183594 498.484375 417.867188 498.34375 417.4375 C 498.230469 416.953125 497.914063 416.378906 496.628906 416.265625 C 495.714844 416.148438 492.429688 416.09375 491.855469 416.09375 C 491.6875 416.09375 491.628906 416.179688 491.628906 416.320313 L 491.628906 419.269531 C 491.628906 420.386719 491.601563 424.277344 491.628906 424.964844 C 491.714844 427.28125 492.230469 427.710938 495.484375 427.710938 C 496.34375 427.710938 497.828125 427.710938 498.6875 427.339844 C 499.546875 426.96875 499.941406 426.308594 500.171875 424.9375 C 500.257813 424.5625 500.316406 424.421875 500.484375 424.421875 C 500.6875 424.421875 500.6875 424.707031 500.6875 424.9375 C 500.6875 425.191406 500.429688 427.484375 500.257813 428.171875 C 500.027344 429.027344 499.742188 429.027344 498.460938 429.027344 C 495.941406 429.027344 494.113281 428.972656 492.828125 428.941406 C 491.515625 428.886719 490.714844 428.828125 490.230469 428.828125 C 490.144531 428.828125 489.601563 428.828125 488.886719 428.886719 C 488.230469 428.886719 487.460938 428.941406 486.941406 428.941406 C 486.601563 428.941406 486.429688 428.886719 486.429688 428.683594 C 486.429688 428.570313 486.484375 428.484375 486.6875 428.484375 C 487.003906 428.484375 487.398438 428.398438 487.6875 428.34375 C 488.34375 428.199219 488.515625 427.484375 488.65625 426.511719 C 488.828125 425.105469 488.828125 422.476563 488.828125 419.269531 "/>
<path style=" stroke:none;fill-rule:nonzero;fill:rgb(50.999451%,50.59967%,50.59967%);fill-opacity:1;" d="M 511.800781 416.292969 C 511.800781 416.464844 511.886719 416.578125 512.058594 416.695313 C 512.546875 416.980469 514.089844 417.238281 515.546875 417.238281 C 516.34375 417.238281 517.285156 417.125 518.03125 416.578125 C 519.199219 415.777344 520.089844 413.976563 520.089844 411.457031 C 520.089844 407.277344 517.886719 404.789063 514.316406 404.789063 C 513.316406 404.789063 512.402344 404.875 512.089844 404.988281 C 511.914063 405.046875 511.800781 405.191406 511.800781 405.390625 Z M 509.144531 413.375 C 509.144531 408.195313 509.144531 407.25 509.089844 406.191406 C 509.003906 405.046875 508.742188 404.503906 507.65625 404.273438 C 507.371094 404.21875 506.800781 404.191406 506.515625 404.191406 C 506.371094 404.191406 506.257813 404.105469 506.257813 403.988281 C 506.257813 403.789063 506.402344 403.703125 506.773438 403.703125 C 508.285156 403.703125 510.371094 403.816406 510.546875 403.816406 C 510.914063 403.816406 513.460938 403.703125 514.488281 403.703125 C 516.570313 403.703125 518.800781 403.902344 520.570313 405.191406 C 521.402344 405.792969 522.886719 407.421875 522.886719 409.710938 C 522.886719 412.203125 521.828125 414.664063 518.828125 417.4375 C 521.570313 420.929688 523.828125 423.90625 525.773438 425.964844 C 527.570313 427.882813 529.003906 428.226563 529.828125 428.371094 C 530.460938 428.484375 530.945313 428.484375 531.144531 428.484375 C 531.285156 428.484375 531.429688 428.570313 531.429688 428.683594 C 531.429688 428.886719 531.230469 428.941406 530.628906 428.941406 L 528.257813 428.941406 C 526.402344 428.941406 525.570313 428.769531 524.714844 428.3125 C 523.285156 427.539063 522.113281 425.910156 520.199219 423.390625 C 518.800781 421.558594 517.230469 419.328125 516.570313 418.46875 C 516.429688 418.324219 516.34375 418.269531 516.144531 418.269531 L 512.058594 418.183594 C 511.886719 418.183594 511.800781 418.296875 511.800781 418.46875 L 511.800781 419.269531 C 511.800781 422.476563 511.800781 425.105469 511.972656 426.511719 C 512.089844 427.484375 512.285156 428.199219 513.285156 428.34375 C 513.742188 428.398438 514.488281 428.484375 514.773438 428.484375 C 514.972656 428.484375 515.03125 428.570313 515.03125 428.683594 C 515.03125 428.828125 514.886719 428.941406 514.515625 428.941406 C 512.6875 428.941406 510.570313 428.828125 510.402344 428.828125 C 510.371094 428.828125 508.285156 428.941406 507.285156 428.941406 C 506.914063 428.941406 506.742188 428.886719 506.742188 428.683594 C 506.742188 428.570313 506.800781 428.484375 507.003906 428.484375 C 507.316406 428.484375 507.714844 428.398438 508.003906 428.34375 C 508.6875 428.199219 508.859375 427.484375 508.972656 426.511719 C 509.144531 425.105469 509.144531 422.476563 509.144531 419.269531 "/>
<path style=" stroke:none;fill-rule:nonzero;fill:rgb(50.999451%,50.59967%,50.59967%);fill-opacity:1;" d="M 532.34375 413.375 C 532.34375 408.195313 532.34375 407.25 532.257813 406.191406 C 532.199219 405.046875 531.945313 404.503906 530.828125 404.273438 C 530.574219 404.21875 530.003906 404.1875 529.714844 404.1875 C 529.574219 404.1875 529.429688 404.105469 529.429688 403.988281 C 529.429688 403.789063 529.601563 403.703125 529.972656 403.703125 C 531.460938 403.703125 533.515625 403.816406 533.800781 403.816406 C 534.089844 403.816406 536.113281 403.703125 537.089844 403.703125 C 537.460938 403.703125 537.628906 403.789063 537.628906 403.988281 C 537.628906 404.105469 537.488281 404.1875 537.371094 404.1875 C 537.144531 404.1875 536.945313 404.21875 536.546875 404.273438 C 535.628906 404.417969 535.371094 405.019531 535.285156 406.191406 C 535.230469 407.25 535.230469 408.195313 535.230469 413.375 L 535.230469 418.066406 C 535.230469 422.875 536.285156 424.9375 537.742188 426.308594 C 539.371094 427.824219 540.859375 428.140625 542.773438 428.140625 C 544.800781 428.140625 546.800781 427.167969 548.003906 425.738281 C 549.515625 423.820313 549.914063 420.988281 549.914063 417.554688 L 549.914063 413.375 C 549.914063 408.195313 549.914063 407.25 549.859375 406.191406 C 549.800781 405.046875 549.515625 404.503906 548.429688 404.273438 C 548.171875 404.21875 547.601563 404.1875 547.285156 404.1875 C 547.171875 404.1875 547.03125 404.105469 547.03125 403.988281 C 547.03125 403.789063 547.199219 403.703125 547.574219 403.703125 C 549.058594 403.703125 550.886719 403.816406 551.089844 403.816406 C 551.316406 403.816406 552.886719 403.703125 553.886719 403.703125 C 554.257813 403.703125 554.429688 403.789063 554.429688 403.988281 C 554.429688 404.105469 554.285156 404.1875 554.171875 404.1875 C 553.914063 404.1875 553.714844 404.21875 553.316406 404.273438 C 552.429688 404.476563 552.171875 405.019531 552.089844 406.191406 C 552.03125 407.25 552.03125 408.195313 552.03125 413.375 L 552.03125 416.953125 C 552.03125 420.558594 551.628906 424.5625 548.972656 426.9375 C 546.574219 429.085938 544.058594 429.398438 542.089844 429.398438 C 540.972656 429.398438 537.601563 429.285156 535.230469 427.023438 C 533.601563 425.480469 532.34375 423.132813 532.34375 418.269531 "/>
<path style=" stroke:none;fill-rule:nonzero;fill:rgb(50.999451%,50.59967%,50.59967%);fill-opacity:1;" d="M 547.058594 399.4375 C 547.230469 399.726563 547.058594 399.8125 546.914063 399.8125 C 546.828125 399.8125 546.488281 399.753906 545.945313 399.8125 C 544.316406 399.984375 542.003906 400.753906 540.914063 401.214844 C 540.6875 401.328125 540.488281 401.386719 540.429688 401.386719 C 540.34375 401.386719 540.257813 401.328125 540.257813 401.183594 C 540.257813 401.070313 540.316406 401.011719 540.488281 400.925781 C 541.6875 400.097656 544.746094 398.238281 544.972656 398.121094 C 545.546875 397.78125 545.746094 397.695313 545.886719 397.695313 C 546.003906 397.695313 546.058594 397.75 546.230469 397.980469 C 546.460938 398.292969 546.6875 398.78125 547.058594 399.4375 "/>
<path style=" stroke:none;fill-rule:evenodd;fill:rgb(72.499084%,46.699524%,8.599854%);fill-opacity:1;" d="M 364.027344 200.898438 C 364.027344 200.898438 410.429688 236.726563 444.460938 212.886719 C 434.003906 206.535156 424.027344 198.953125 415.027344 190.480469 C 402.199219 206.078125 389.941406 216.035156 364.027344 200.898438 "/>
</g>
</svg>
